# xmcd
#
# Track frame offsets: 
#        150
#        16347
#        33107
#        56887
#
# Disc length: 1139 seconds
#
# Revision: 4
# Processed by: cddbd v1.5.2PL0 Copyright (c) Steve Scherf et al.
# Submitted via: ExactAudioCopy v1.0b3
#
DISCID=29047104
DTITLE=DJ Piccolo - Spring (...Let Me See)
DYEAR=2000
DGENRE=Techno
TTITLE0=Spring (...Let Me See) (The 4 Jays Edit)
TTITLE1=Spring (...Let Me See) (Holiday Cut)
TTITLE2=Spring (...Let Me See) (The 4 Jays Club Mix)
TTITLE3=Spring (...Let Me See) (Club Mix)
EXTD=
EXTT0=
EXTT1=
EXTT2=
EXTT3=
PLAYORDER=
